<svg width="34" height="34" viewBox="0 0 34 34" fill="none" xmlns="http://www.w3.org/2000/svg">
<g id="icons/action/ic_language_48px" clip-path="url(#clip0_13_916)">
<path id="Vector" d="M16.9929 2.83301C9.16581 2.83301 2.83331 9.17259 2.83331 16.9997C2.83331 24.8268 9.16581 31.1663 16.9929 31.1663C24.82 31.1663 31.1666 24.8268 31.1666 16.9997C31.1666 9.17259 24.82 2.83301 16.9929 2.83301ZM26.8033 11.333H22.6241C22.1637 9.56217 21.5191 7.86217 20.6691 6.28967C23.2758 7.18217 25.4433 8.98842 26.8033 11.333ZM17 5.71592C18.1829 7.41592 19.1037 9.30717 19.7058 11.333H14.2941C14.8962 9.30717 15.8171 7.41592 17 5.71592ZM6.03498 19.833C5.80123 18.9263 5.66665 17.9772 5.66665 16.9997C5.66665 16.0222 5.80123 15.073 6.03498 14.1663H10.8162C10.7029 15.0943 10.625 16.0363 10.625 16.9997C10.625 17.963 10.7029 18.9051 10.8233 19.833H6.03498ZM7.18956 22.6663H11.3687C11.8291 24.4372 12.4737 26.1372 13.3237 27.7168C10.7171 26.8243 8.54956 25.0109 7.18956 22.6663ZM11.3687 11.333H7.18956C8.54956 8.98842 10.7171 7.17509 13.3237 6.28259C12.4737 7.86217 11.8291 9.56217 11.3687 11.333ZM17 28.2834C15.8241 26.5834 14.9033 24.6922 14.2941 22.6663H19.7058C19.0966 24.6922 18.1758 26.5834 17 28.2834ZM20.315 19.833H13.685C13.5504 18.9051 13.4583 17.963 13.4583 16.9997C13.4583 16.0363 13.5504 15.0943 13.685 14.1663H20.315C20.4496 15.0943 20.5416 16.0363 20.5416 16.9997C20.5416 17.963 20.4496 18.9051 20.315 19.833ZM20.6762 27.7097C21.5262 26.1301 22.1708 24.4372 22.6312 22.6663H26.8104C25.4433 25.0109 23.2758 26.8172 20.6762 27.7097ZM23.1766 19.833C23.29 18.9051 23.375 17.963 23.375 16.9997C23.375 16.0363 23.2971 15.0943 23.1766 14.1663H27.9579C28.1916 15.073 28.3333 16.0222 28.3333 16.9997C28.3333 17.9772 28.1987 18.9263 27.9579 19.833H23.1766Z" fill="#292D32"/>
</g>
<defs>
<clipPath id="clip0_13_916">
<rect width="34" height="34" fill="white"/>
</clipPath>
</defs>
</svg>
