<svg width="125" height="43" viewBox="0 0 125 43" fill="none" xmlns="http://www.w3.org/2000/svg">
<rect width="125" height="43" fill="#E5E5E5"/>
<g id="desktop" clip-path="url(#clip0_0_1)">
<rect width="1920" height="1599" transform="translate(-255 -20)" fill="white"/>
<g id="&#209;&#132;&#209;&#131;&#209;&#130;&#208;&#181;&#209;&#128;">
<g id="Rectangle 3" filter="url(#filter0_d_0_1)">
<rect x="-255" y="-20" width="1920" height="88" fill="white"/>
</g>
<g id="Group 8">
<g id="&#208;&#154;&#208;&#160;&#208;&#161;">
<path id="Vector" d="M113.465 39.966C111.467 39.966 109.611 39.6567 107.898 39.0382C106.209 38.3959 104.734 37.4919 103.473 36.3263C102.236 35.1606 101.273 33.7808 100.583 32.187C99.8932 30.5931 99.5483 28.8327 99.5483 26.9058C99.5483 24.9789 99.8932 23.2186 100.583 21.6247C101.273 20.0308 103.07 18.3777 104.307 17.2121C108.469 17.9672 106.209 15.4277 107.898 14.8092C109.611 14.1669 111.467 13.8457 113.465 13.8457C115.915 13.8457 118.08 14.2739 119.959 15.1303C121.862 15.9867 123.432 17.2237 124.669 18.8414L119.353 23.5873C118.615 22.6595 117.794 21.9458 116.89 21.4463C116.01 20.9229 115.011 20.6612 113.893 20.6612C113.013 20.6612 112.216 20.804 111.502 21.0894C110.789 21.3749 110.17 21.7912 109.647 22.3384C109.147 22.8855 108.755 23.5516 108.469 24.3366C108.184 25.0979 108.041 25.9543 108.041 26.9058C108.041 27.8574 108.184 28.7257 108.469 29.5107C108.755 30.272 109.147 30.9262 109.647 31.4733C110.17 32.0205 110.789 32.4368 111.502 32.7222C112.216 33.0077 113.013 33.1504 113.893 33.1504C115.011 33.1504 116.01 32.9007 116.89 32.4011C117.794 31.8777 118.615 31.1522 119.353 30.2244L124.669 34.9703C123.432 36.5642 116.39 35.336 119.959 38.6814C118.08 39.5378 115.915 39.966 113.465 39.966Z" fill="#8E78F7"/>
<path id="Vector_2" d="M74.5948 39.3951L70.5605 22.5455L74.5948 22.5455C66.1565 12.0676 90.9616 14.7974 92.6506 15.5586C94.3634 16.3199 95.6837 17.4141 96.6114 18.8415C97.5392 20.245 98.0031 21.9103 98.0031 23.8372C98.0031 25.7641 97.5392 27.4293 96.6114 28.8328C95.6837 30.2364 94.3634 31.3307 92.6506 32.1157C90.9616 32.877 88.654 30.5813 86.8438 33.2576H79.2693L83.016 29.6536V39.3951H74.5948ZM83.016 30.5813L79.2693 26.7632H86.0848C87.2505 26.7632 88.1069 26.5015 88.654 25.9782C89.225 25.4548 89.5104 24.7411 89.5104 23.8372C89.5104 22.9332 89.225 22.2195 88.654 21.6962C88.1069 21.1728 87.2505 20.9111 86.0848 20.9111H79.2693L83.016 17.093V23.8372V30.5813Z" fill="black"/>
<path id="Vector_3" d="M63.558 39.3954L57.3491 27.6913L64.0575 23.7661L73.0498 39.3954H63.558ZM48 39.3954V26.9062V26.1256L48.2832 25.5192L48.5032 24.9057L48.2832 24.2921L48 23.7839V20.6616V14.417H56.4213V39.3954H48ZM53.9948 30.3675V23.7304L64.5033 23.7661V30.4032L53.9948 30.3675ZM64.8783 27.7983L57.135 27.0133L63.2734 18.0066L64.808 15.755L65.7936 14.8053L66.3426 13.5033L69.4119 9H76.8219L71.6774 17.5428L64.8783 27.7983Z" fill="black"/>
</g>
<g id="Group">
<path id="Vector_4" d="M44.8703 2.4869C43.1596 0.782291 41.4578 0.151808 41.2694 0.0855402C40.1913 -0.293541 39.1103 0.648588 39.4128 1.70563C39.9112 3.44611 40.2571 6.50969 39.4169 7.55765C39.2753 7.73416 39.0573 7.91461 38.5134 7.91461H9.81714C9.17648 7.91461 8.92463 7.70295 8.77672 7.51854C8.23413 6.84184 7.98615 4.95938 8.91774 1.70572C9.22 0.650026 8.14058 -0.293901 7.06117 0.0856301C6.87276 0.151897 5.1709 0.782291 3.46026 2.48699C1.88168 4.05996 0 6.88689 0 11.4213C0 15.7369 3.75836 19.2439 8.30682 19.2439H9.91154V22.5652C9.91154 24.4974 10.6094 26.3924 11.8766 27.9013L15.7257 32.4843C15.9455 32.746 16.1034 33.0567 16.1824 33.3832L17.5791 39.1482C18.1259 41.4052 20.2062 42.9814 22.6379 42.9814H25.6924C28.1241 42.9814 30.2043 41.4051 30.7512 39.1482L32.1478 33.3831C32.2269 33.0567 32.3849 32.746 32.6045 32.4843L36.4538 27.9012C37.7212 26.3923 38.419 24.4973 38.419 22.5651V19.2438H40.0237C44.5713 19.2438 48.3306 15.7381 48.3306 11.4212C48.3306 6.88689 46.4489 4.05996 44.8703 2.4869ZM11.2121 16.5464H8.30682C5.28795 16.5464 2.83187 14.2473 2.83187 11.4213C2.83187 7.87083 4.19022 5.65029 5.52186 4.32665C5.34742 6.12585 5.53347 7.91776 6.52632 9.15589C7.059 9.82018 8.06233 10.6121 9.81724 10.6121H11.2122C11.5695 10.891 12.1771 12.1592 12.1771 13.5793C12.1771 14.9993 11.5694 16.2675 11.2121 16.5464ZM17.4294 30.1946L14.088 26.2162C13.577 25.6078 13.2026 24.9073 12.9802 24.1643C13.6063 23.7712 14.3392 23.5598 15.1033 23.5598C17.2373 23.5598 18.9735 25.2136 18.9735 27.2463C18.9735 28.4321 18.3902 29.5108 17.4294 30.1946ZM34.2427 26.2161L30.9012 30.1946C29.9403 29.5108 29.357 28.4321 29.357 27.2463C29.357 25.2136 31.0933 23.5598 33.2273 23.5598C33.9915 23.5598 34.7243 23.7712 35.3503 24.1643C35.1279 24.9073 34.7535 25.6077 34.2427 26.2161ZM35.5872 21.2708C31.2112 19.7026 26.5252 22.7969 26.5252 27.2463C26.5252 29.4042 27.6405 31.3568 29.4572 32.5266C29.3998 32.7169 29.5231 32.222 27.9921 38.5416C27.7435 39.5676 26.798 40.284 25.6926 40.284H25.5812V38.7554C25.5812 38.0106 24.9473 37.4067 24.1653 37.4067C23.3833 37.4067 22.7493 38.0106 22.7493 38.7554V40.284H22.638C21.5326 40.284 20.587 39.5675 20.3385 38.5416C18.8163 32.2584 18.9308 32.7169 18.8733 32.5266C20.6901 31.3568 21.8054 29.4042 21.8054 27.2463C21.8054 22.7954 17.1182 19.7031 12.7434 21.2708V18.8177C14.4408 17.7385 15.8254 14.1018 14.4361 10.6121H22.7493V13.0206L20.1435 15.5029C19.8779 15.7558 19.7287 16.0989 19.7287 16.4565V18.6145C19.7287 19.3593 20.3626 19.9632 21.1446 19.9632C21.9266 19.9632 22.5606 19.3593 22.5606 18.6145V17.0152L24.1653 15.4866L26.1848 17.4102C26.7377 17.9369 27.6342 17.9369 28.1872 17.4102C28.7402 16.8835 28.7402 16.0295 28.1872 15.5028L25.5812 13.0206V10.6121H33.8944C33.5278 11.5331 33.3217 12.5861 33.3217 13.5793C33.3217 15.3607 34.0413 17.8349 35.5872 18.8177V21.2708ZM40.0237 16.5464H37.1184C36.7611 16.2675 36.1535 14.9993 36.1535 13.5793C36.1535 12.1592 36.7611 10.891 37.1184 10.6121H38.5134C39.8333 10.6121 40.924 10.122 41.6674 9.195C42.705 7.90095 42.8472 5.92884 42.7173 4.237C44.0775 5.54922 45.4987 7.78927 45.4987 11.4213C45.4987 14.2472 43.0426 16.5464 40.0237 16.5464Z" fill="black"/>
</g>
</g>
</g>
</g>
<defs>
<filter id="filter0_d_0_1" x="-273" y="-38" width="1956" height="124" filterUnits="userSpaceOnUse" color-interpolation-filters="sRGB">
<feFlood flood-opacity="0" result="BackgroundImageFix"/>
<feColorMatrix in="SourceAlpha" type="matrix" values="0 0 0 0 0 0 0 0 0 0 0 0 0 0 0 0 0 0 127 0" result="hardAlpha"/>
<feMorphology radius="2" operator="dilate" in="SourceAlpha" result="effect1_dropShadow_0_1"/>
<feOffset/>
<feGaussianBlur stdDeviation="8"/>
<feComposite in2="hardAlpha" operator="out"/>
<feColorMatrix type="matrix" values="0 0 0 0 0 0 0 0 0 0 0 0 0 0 0 0 0 0 0.25 0"/>
<feBlend mode="normal" in2="BackgroundImageFix" result="effect1_dropShadow_0_1"/>
<feBlend mode="normal" in="SourceGraphic" in2="effect1_dropShadow_0_1" result="shape"/>
</filter>
<clipPath id="clip0_0_1">
<rect width="1920" height="1599" fill="white" transform="translate(-255 -20)"/>
</clipPath>
</defs>
</svg>
